<svg xmlns="http://www.w3.org/2000/svg" viewBox="0 0 137 53"><path fill="#231f20" d="M3.2 8.2c1.2 0 1.6-.7 1.6-1.4s-.4-1.5-1.6-1.5H1.5v2.9h1.7zM3 4.4c1 0 1.3-.6 1.3-1.2S4 2 3 2H1.5v2.4H3zM.4 1.1H3c1.6 0 2.3.9 2.3 2.1 0 .6-.4 1.2-.8 1.6.8.3 1.3 1.1 1.3 2C5.8 8 5 9.1 3.2 9.1H.4v-8zM11.8 6.2c0-1.3-.8-2.3-2.1-2.3s-2.1 1-2.1 2.3c0 1.3.8 2.3 2.1 2.3s2.1-1 2.1-2.3m-5.2 0c0-1.7 1.3-3.1 3.1-3.1s3.1 1.4 3.1 3.1c0 1.7-1.3 3.1-3.1 3.1-1.9 0-3.1-1.4-3.1-3.1M14.1 9.1h1v-8h-1zM16.7 9.1h1V3.3h-1v5.8zm0-6.9h1V1.1h-1v1.1zM24 6.2c0-1.4-.9-2.2-2-2.2s-2 .8-2 2.2.9 2.2 2 2.2 2-.8 2-2.2m-4.4 4.9v-.9c.8.5 1.4.8 2.4.8s1.9-.6 1.9-2.3v-.5c-.5.7-1.3 1.1-2.2 1.1-1.6 0-2.7-1.4-2.7-3s1.2-3 2.7-3c.9 0 1.8.5 2.3 1.2v-1h1v5.2c0 2.7-1.7 3.2-3 3.2-.9-.1-1.8-.4-2.4-.8M31.5 6.2c0-1.4-.9-2.2-2-2.2s-2 .8-2 2.2.9 2.2 2 2.2 2-.8 2-2.2m-4 1.8v1h-.9V1h1v3.1c.5-.7 1.3-1.1 2.2-1.1 1.6 0 2.7 1.4 2.7 3s-1.2 3-2.7 3c-.9.2-1.8-.2-2.3-1M35.4 8.7l-2.3-5.4h1L36 7.6l1.8-4.3h1l-3.7 8.4h-1zM44.3 6.2c0-1.4-.9-2.2-2-2.2s-2 .8-2 2.2.9 2.2 2 2.2 2-.8 2-2.2m-4.5 4.9v-.9c.9.5 1.5.7 2.5.7s1.9-.6 1.9-2.3v-.4c-.5.7-1.3 1.1-2.2 1.1-1.6 0-2.7-1.4-2.7-3s1.2-3 2.7-3c.9 0 1.8.5 2.3 1.2v-1h.9v5.2c0 2.7-1.7 3.2-3 3.2-.9-.1-1.7-.4-2.4-.8M51.5 6.2c0-1.4-.9-2.2-2-2.2s-2 .8-2 2.2.9 2.2 2 2.2 2-.8 2-2.2M47 11.1v-.9c.9.5 1.5.7 2.5.7s1.9-.6 1.9-2.3v-.4c-.5.7-1.3 1.1-2.2 1.1-1.6 0-2.7-1.4-2.7-3s1.2-3 2.7-3c.9 0 1.8.5 2.3 1.2v-1h.9v5.2c0 2.7-1.7 3.2-3 3.2-.8-.1-1.7-.4-2.4-.8M58 5.3c.2-.7-.4-1.3-1.4-1.3-.8 0-1.6.4-1.7 1.4H58zm-4.2.8c0-1.8 1.4-3 2.8-3 1.4.1 2.4 1 2.4 2.3 0 .2 0 .5-.1.7h-4.1c-.1 1 .4 2.4 2.2 2.4.7 0 1.4-.3 1.9-.7v.9c-.5.4-1.4.7-2.2.7-1.7-.2-2.9-1.5-2.9-3.3zM60.4 9.1h1v-8h-1zM67.7 6.2c0-1.4-.9-2.2-2-2.2s-2 .8-2 2.2.9 2.2 2 2.2 2-.8 2-2.2m-5 0c0-1.7 1.2-3 2.7-3 .9 0 1.8.5 2.3 1.2v-1h.9v5.7h-.9v-1c-.5.7-1.3 1.2-2.3 1.2-1.5-.1-2.7-1.4-2.7-3.1M74.9 6.2c0-1.4-.9-2.2-2-2.2s-2 .8-2 2.2.9 2.2 2 2.2c1.2 0 2-.8 2-2.2m-4.4 4.9v-.9c.9.5 1.5.8 2.5.8s1.9-.6 1.9-2.3v-.5c-.5.7-1.3 1.1-2.2 1.1-1.6 0-2.7-1.4-2.7-3s1.2-3 2.7-3c.9 0 1.8.5 2.3 1.2v-1h.9v5.2c0 2.7-1.7 3.2-3 3.2-.9-.1-1.8-.4-2.4-.8M81.5 5.3C81.6 4.6 81 4 80 4c-.8 0-1.6.4-1.7 1.4h3.2zm-4.3.8c0-1.8 1.4-3 2.8-3s2.4.9 2.4 2.2c0 .2 0 .5-.1.7h-4.1c-.1 1 .4 2.4 2.2 2.4.7 0 1.4-.3 1.9-.7v.9c-.5.4-1.4.7-2.2.7-1.7-.1-2.9-1.4-2.9-3.2zM84 4.1h-.8v-.7h.8V2.1l1-.3v1.7h1.3v.7H85v3.2c0 .7.2 1 .9 1 .2 0 .5 0 .7-.1l.2.8c-.3.1-.6.1-.9.1-1 0-1.8-.6-1.8-1.8V4.1z"/><path fill="#1396b7" d="M56.3 42.7h-3.4c-.4 0-.8-.4-.8-.8v-5.6c0-5-.1-8.4-.4-10-.5-3.4-1.6-6-3.4-7.8-2.3-2.3-5.5-3.5-9.4-3.5-4.2 0-7.9 1.1-11.1 3.4-.3.2-.8.2-1-.1-2.3-2.2-5-3.4-8.4-3.4H.8c-.4 0-.8.4-.8.8v35.8c0 .4.4.8.8.8h9.8c.4 0 .8-.4.8-.8V25.4c0-.4.4-.8.8-.8h4.1c1.9 0 3 .8 3.6 2.3.3.9.5 2.5.5 4.9v19.8c0 .4.4.8.8.8H31c.4 0 .8-.4.8-.8V26.8c0-.3.1-.5.4-.7 1.6-1 3.1-1.5 4.6-1.5 1.8 0 3 .8 3.6 2.3.3.8.4 2.4.4 4.9v19.8c0 .4.4.8.8.8h26.2c.4 0 .8-.4.8-.8V16.8c0-.4-.4-.8-.8-.8H58c-.4 0-.8.4-.8.8v25.1c-.1.4-.4.8-.9.8M95.9 41.1c0 .3-.2.6-.4.7-1.8.9-3.3 1.4-4.6 1.4-2.1 0-3.9-.8-5.3-2.5s-2.1-3.9-2.1-6.8c0-3 .7-5.4 2.1-7.2C87 24.9 88.8 24 91 24c1.7 0 3.2.4 4.5 1.2.2.2.4.4.4.7v15.2zm41 8.7l-2.4-8c0-.1-.2-.2-.3-.2-6.6 2.1-8-.6-8.3-3.2V25.9c0-.4.4-.8.8-.8h8.6c.1 0 .2-.1.2-.2v-.2c0-.1 0-.1-.1-.2L121.7 16c-.1-.1-.3-.1-.4-.1h-13.2c-.4 0-.8-.4-.8-.8V7.2c0-.3-.1-.5-.4-.7L96.5.1c-.3-.2-.6 0-.6.3v14.8c0 .6-.6.9-1.1.8-2-.7-3.9-1.1-5.8-1.1-4.5 0-8.3 1.8-11.6 5.3-3.5 3.8-5.3 8.4-5.3 14 0 5.4 1.4 9.8 4.3 13.2 2.9 3.4 6.8 5 11.6 5h18.4c.4 0 .8-.4.8-.8V26.1c0-.4.4-.8.8-.8h5.6c.4 0 .8.4.8.8v11.2c0 3.3.1 5.6.4 6.8.4 2 1.3 3.8 2.8 5.3 2.3 2.3 5.5 3.4 9.8 3.4 2.4 0 4.7-.4 6.8-1.1 1-.4 1.8-.7 2.3-1 .4-.2.5-.6.4-.9z"/></svg>