<svg xmlns="http://www.w3.org/2000/svg" viewBox="0 0 17 17">
  <g fill="none" fill-rule="evenodd">
    <path fill="#4E67AB" fill-rule="nonzero" d="M16.151 14.603c-.103-.179-.942-1.684.076-5.48a5.74 5.74 0 0 0-.393-3.874 5.949 5.949 0 0 0-1.304-1.743l.03-.108a2 2 0 1 0-3.865-1.036l-.028.106a5.38 5.38 0 0 0-2 .857 5.817 5.817 0 0 0-2.279 3.157c-1.009 3.762-2.488 4.646-2.667 4.75a1.083 1.083 0 0 0 .08 2.092l3.438.921a.6.6 0 0 0-.198.738 3.077 3.077 0 0 0 4.29 1.15.486.486 0 0 0 .188-.703l3.477.932c.483.133.995-.066 1.262-.49a.962.962 0 0 0-.107-1.269zm-3.29-12.6a.933.933 0 0 1 .648.815 6.5 6.5 0 0 0-.79-.288 5.975 5.975 0 0 0-.827-.146.933.933 0 0 1 .97-.38l-.001-.001zm-.425 1.582c2.215.594 3.261 3.286 2.733 5.255-.339 1.18-.514 2.4-.52 3.628l-8.543-2.29a13.379 13.379 0 0 0 1.365-3.402c.496-1.979 2.751-3.785 4.966-3.192l-.001.001zM9.235 15.387a2.04 2.04 0 0 1-1.247-.975l2.778.745a1.778 1.778 0 0 1-1.531.23zm-5.156-3.116A3.843 3.843 0 0 0 5.44 11.13l9.28 2.488c.052.6.262 1.177.608 1.67L4.079 12.271z"/>
  </g>
</svg>
