<svg viewBox="0 0 17 17.607" xmlns="http://www.w3.org/2000/svg">
  <g transform="translate(-1)">
    <path fill="#4e67ab" d="M13.446 1.518H1v3.946h17V1.518z"/>
    <circle cx=".607" cy=".607" r=".607" fill="#313745" transform="translate(6.161 2.125)"/>
    <circle cx=".607" cy=".607" r=".607" fill="#313745" transform="translate(7.982 2.125)"/>
    <circle cx=".607" cy=".607" r=".607" fill="#313745" transform="translate(9.804 2.125)"/>
    <circle cx=".607" cy=".607" r=".607" fill="#313745" transform="translate(11.625 2.125)"/>
    <path fill="#b5bfd6" d="M12.232 0a1.5 1.5 0 0 0-.911.311 1.522 1.522 0 0 1 .4.454.91.91 0 1 1 .512 1.664.303.303 0 1 0 0 .607 1.518 1.518 0 1 0 0-3.036z"/>
    <path fill="#697389" d="M10.922.765a1.5 1.5 0 0 0-.208.753h.607a.91.91 0 0 0-.399-.753zM9.101.765a1.5 1.5 0 0 0-.208.753H9.5a.91.91 0 0 0-.399-.753z"/>
    <path fill="#b5bfd6" d="M11.721.765a1.522 1.522 0 0 0-.4-.454 1.488 1.488 0 0 0-1.821 0 1.522 1.522 0 0 1 .4.454.91.91 0 1 1 .512 1.664.303.303 0 0 0 0 .607 1.52 1.52 0 0 0 1.518-1.518 1.5 1.5 0 0 0-.209-.753z"/>
    <path fill="#697389" d="M7.279.765a1.5 1.5 0 0 0-.208.753h.607a.91.91 0 0 0-.399-.753z"/>
    <path fill="#b5bfd6" d="M9.9.765a1.522 1.522 0 0 0-.4-.454 1.488 1.488 0 0 0-1.821 0 1.522 1.522 0 0 1 .4.454.91.91 0 1 1 .512 1.664.303.303 0 1 0 0 .607 1.52 1.52 0 0 0 1.518-1.518A1.5 1.5 0 0 0 9.9.765z"/>
    <path fill="#b5bfd6" d="M8.078.765a1.522 1.522 0 0 0-.4-.454A1.5 1.5 0 0 0 6.768 0 1.52 1.52 0 0 0 5.25 1.518h.607a.911.911 0 1 1 .911.911.303.303 0 1 0 0 .607 1.52 1.52 0 0 0 1.518-1.518 1.5 1.5 0 0 0-.208-.753z"/>
    <path fill="#f5f7fc" d="M1 5.464h17v12.143H1z"/>
    <circle cx="1.518" cy="1.518" r="1.518" fill="#b5bfd6" transform="translate(3.125 7.286)"/>
    <circle cx="1.518" cy="1.518" r="1.518" fill="#b5bfd6" transform="translate(7.982 7.286)"/>
    <circle cx="1.518" cy="1.518" r="1.518" fill="#b5bfd6" transform="translate(12.839 7.286)"/>
    <circle cx="1.518" cy="1.518" r="1.518" fill="#b5bfd6" transform="translate(3.125 12.143)"/>
    <circle cx="1.518" cy="1.518" r="1.518" fill="#b5bfd6" transform="translate(7.982 12.143)"/>
    <circle cx="1.518" cy="1.518" r="1.518" fill="#4e67ab" transform="translate(12.839 12.143)"/>
  </g>
</svg>