<svg fill="#4e67ab" viewBox="0 0 19.358 20.43" xmlns="http://www.w3.org/2000/svg">
	<path d="M15.663 5.324C15.135 3.036 13.463 0 9.679 0c-2.86 0-4.312 1.276-4.972 2.376a4.319 4.319 0 0 0-.572 1.364 5.292 5.292 0 0 0-.7 10.119 9.589 9.589 0 0 0 3.168.66h.44V13.2h-.44s-5.28 0-5.28-4.4c0-3.52 3.96-3.96 3.96-3.96s0-3.52 4.4-3.52 4.84 5.28 4.84 5.28h.352a2.883 2.883 0 0 1 3.168 3.08c0 3.52-5.28 3.52-5.28 3.52h-.88v1.32h.88c2.288 0 6.6-1.012 6.6-4.84a4.074 4.074 0 0 0-3.7-4.356z" />
  <path d="M7.039 16.498a.611.611 0 0 0-.44-.22.565.565 0 0 0-.44.176.68.68 0 0 0-.044.924l2.64 2.86a1.325 1.325 0 0 0 1.32 0l2.86-2.9a.638.638 0 0 0 0-.924.69.69 0 0 0-.968 0l-1.8 1.76V8.887a.66.66 0 0 0-1.32 0v9.591z" />
</svg>