<svg fill="#FFFFFF" viewBox="0 0 16.483 15.276" xmlns="http://www.w3.org/2000/svg">
	<path d="M8.281 9.648c2.211 0 4.02-2.171 4.02-4.824S10.492 0 8.281 0s-4.02 2.171-4.02 4.824 1.809 4.824 4.02 4.824zm0-8.442c1.568 0 2.814 1.608 2.814 3.618S9.849 8.442 8.281 8.442 5.467 6.834 5.467 4.824s1.246-3.618 2.814-3.618z" data-name="Path 730"/>
	<path d="M11.94 9.246a.586.586 0 1 0-.121 1.166 3.921 3.921 0 0 1 3.457 3.618H1.246a3.89 3.89 0 0 1 3.457-3.618.586.586 0 1 0-.121-1.166 5.24 5.24 0 0 0-4.583 5.427.618.618 0 0 0 .6.6h15.276a.618.618 0 0 0 .6-.6 5.163 5.163 0 0 0-4.535-5.427z" data-name="Path 731"/>
</svg>
